# xmcd
#
# Track frame offsets: 
#        150
#        16822
#        30654
#        46716
#        62515
#        76007
#        91241
#        105429
#        124193
#        138418
#        153489
#        170050
#
# Disc length: 2489 seconds
#
# Revision: 0
# Processed by: cddbd v1.5.2PL0 Copyright (c) Steve Scherf et al.
# Submitted via: ExactAudioCopy v0.99pb5
#
DISCID=8709b70c
DTITLE=Raimo Laamanen - Pohjoisen ihminen
DYEAR=2007
DGENRE=Acid
TTITLE0=Pohjoisen ihminen
TTITLE1=Kotiseudulle tiedä en vertaa
TTITLE2=Kiireettömän raja
TTITLE3=Katseesi kun koskettaa
TTITLE4=Jäikö kaikki tää vain yhteen iltaan
TTITLE5=Lappi kietoo sydämen
TTITLE6=Kainuun tyttö
TTITLE7=Verikihlat
TTITLE8=Kävin kylässä kerran
TTITLE9=Mansikka-aika
TTITLE10=Mies ja kitara
TTITLE11=Kuihtuu kesäinen maa
EXTD=
EXTT0=
EXTT1=
EXTT2=
EXTT3=
EXTT4=
EXTT5=
EXTT6=
EXTT7=
EXTT8=
EXTT9=
EXTT10=
EXTT11=
PLAYORDER=
